<svg width="30" height="31" viewBox="0 0 30 31" fill="none" xmlns="http://www.w3.org/2000/svg">
    <g clip-path="url(#clip0)">
    <path d="M28.344 0.138825H1.65459C0.740662 0.139282 -0.000228829 0.88063 5.30167e-08 1.79478V28.4842C0.000457817 29.3982 0.741806 30.1391 1.65596 30.1388H28.344C29.2584 30.1391 29.9998 29.3979 30 28.4836C30 28.4833 30 28.4831 30 28.4829V1.79341C29.9995 0.879486 29.2582 0.138596 28.344 0.138825Z" fill="#4267B2"/>
    <path d="M20.7129 30.1388V18.5373H24.624L25.21 13.9963H20.7129V11.1041C20.7129 9.79239 21.077 8.8986 22.958 8.8986H25.3418V4.84808C24.9271 4.79292 23.5041 4.66956 21.8484 4.66956C18.3913 4.66956 16.0254 6.77893 16.0254 10.6544V13.9963H12.1289V18.5373H16.0254V30.1388H20.7129Z" fill="white"/>
    </g>
    <defs>
    <clipPath id="clip0">
    <rect y="0.138824" width="30" height="30" fill="white"/>
    </clipPath>
    </defs>
</svg>
