<svg width="30" height="31" viewBox="0 0 30 31" fill="none" xmlns="http://www.w3.org/2000/svg">
    <g clip-path="url(#clip0)">
    <path d="M1.87513 2.80577C-0.482373 5.25452 0.000127003 7.85577 0.000127003 15.7583C0.000127003 22.3208 -1.14487 28.8995 4.84763 30.4483C6.71888 30.9295 23.2989 30.9295 25.1676 30.4458C27.6626 29.802 29.6926 27.7783 29.9701 24.2495C30.0089 23.757 30.0089 7.76827 29.9689 7.26577C29.6739 3.50702 27.3601 1.34077 24.3114 0.902023C23.6126 0.800773 23.4726 0.770773 19.8876 0.764523C7.17138 0.770773 4.38388 0.204523 1.87513 2.80577Z" fill="url(#paint0_linear)"/>
    <path d="M14.9973 4.68827C10.4585 4.68827 6.14852 4.28452 4.50227 8.50952C3.82227 10.2545 3.92102 12.5208 3.92102 15.7658C3.92102 18.6133 3.82977 21.2895 4.50227 23.0208C6.14477 27.2483 10.4898 26.8433 14.9948 26.8433C19.341 26.8433 23.8223 27.2958 25.4885 23.0208C26.1698 21.2583 26.0698 19.0258 26.0698 15.7658C26.0698 11.4383 26.3085 8.64452 24.2098 6.54702C22.0848 4.42202 19.211 4.68827 14.9923 4.68827H14.9973ZM14.0048 6.68452C23.4723 6.66952 24.6773 5.61702 24.0123 20.2383C23.776 25.4095 19.8385 24.842 14.9985 24.842C6.17352 24.842 5.91977 24.5895 5.91977 15.7608C5.91977 6.82952 6.61977 6.68952 14.0048 6.68202V6.68452ZM20.9098 8.52327C20.176 8.52327 19.581 9.11827 19.581 9.85202C19.581 10.5858 20.176 11.1808 20.9098 11.1808C21.6435 11.1808 22.2385 10.5858 22.2385 9.85202C22.2385 9.11827 21.6435 8.52327 20.9098 8.52327ZM14.9973 10.077C11.856 10.077 9.30977 12.6245 9.30977 15.7658C9.30977 18.907 11.856 21.4533 14.9973 21.4533C18.1385 21.4533 20.6835 18.907 20.6835 15.7658C20.6835 12.6245 18.1385 10.077 14.9973 10.077ZM14.9973 12.0733C19.8785 12.0733 19.8848 19.4583 14.9973 19.4583C10.1173 19.4583 10.1098 12.0733 14.9973 12.0733Z" fill="white"/>
    </g>
    <defs>
    <linearGradient id="paint0_linear" x1="1.93265" y1="28.8484" x2="29.8145" y2="4.717" gradientUnits="userSpaceOnUse">
    <stop stop-color="#FFDD55"/>
    <stop offset="0.5" stop-color="#FF543E"/>
    <stop offset="1" stop-color="#C837AB"/>
    </linearGradient>
    <clipPath id="clip0">
    <rect y="0.764526" width="30" height="30" fill="white"/>
    </clipPath>
    </defs>
</svg>
