<svg width="54" height="52" viewBox="0 0 54 52" fill="none" xmlns="http://www.w3.org/2000/svg">
<path d="M53.516 0.142994C53.216 -0.0390057 52.842 -0.0470057 52.533 0.115994L36 8.86899L19.468 0.115994C19.455 0.108994 19.44 0.106994 19.427 0.100994C19.379 0.0779942 19.33 0.0609943 19.28 0.0459943C19.252 0.0379943 19.225 0.0289943 19.197 0.0229943C19.142 0.0119943 19.086 0.00799431 19.029 0.00599431C19.004 0.00499431 18.979 0.00199429 18.953 0.00299429C18.899 0.00599429 18.846 0.0159943 18.793 0.0279943C18.763 0.0339943 18.733 0.0379943 18.704 0.0469943C18.697 0.0489943 18.69 0.0489943 18.684 0.0509943L0.684 6.05099C0.275 6.18699 0 6.56899 0 6.99999V50C0 50.321 0.154 50.623 0.416 50.812C0.588 50.935 0.793 51 1 51C1.106 51 1.213 50.983 1.316 50.948L18.962 45.066L35.619 51.925C35.633 51.931 35.649 51.929 35.663 51.934C35.773 51.973 35.885 52 36 52C36.09 52 36.179 51.985 36.266 51.961C36.294 51.953 36.32 51.94 36.348 51.93C36.388 51.915 36.43 51.904 36.468 51.884L53.468 42.884C53.795 42.711 54 42.37 54 42V0.999994C54 0.648994 53.816 0.323994 53.516 0.142994ZM2 7.72099L18 2.38799V29.38C17.57 29.458 17.146 29.546 16.736 29.654C16.202 29.796 15.884 30.343 16.026 30.877C16.145 31.325 16.549 31.621 16.992 31.621C17.076 31.621 17.163 31.61 17.249 31.588C17.489 31.524 17.751 31.492 18 31.44V43.28L2 48.612V7.72099ZM20 31.16C20.321 31.135 20.632 31.094 20.961 31.087C21.513 31.075 21.951 30.618 21.94 30.066C21.928 29.521 21.483 29.087 20.94 29.087C20.933 29.087 20.925 29.087 20.918 29.087C20.608 29.094 20.303 29.111 20 29.132V2.66099L35 10.602V31.796C34.286 31.765 33.56 31.681 32.799 31.534C32.255 31.427 31.732 31.783 31.627 32.325C31.522 32.867 31.877 33.392 32.419 33.497C33.305 33.669 34.165 33.753 35.001 33.786V49.507L20 43.33V31.16ZM52 41.397L37 49.338V33.678C37.372 33.509 37.62 33.129 37.587 32.698C37.558 32.324 37.318 32.024 37 31.877V10.602L52 2.66099V41.397Z" fill="#ECB016"/>
<path d="M11 8C8.243 8 6 10.243 6 13C6 15.415 7.721 17.434 10 17.899V20C10 20.553 10.448 21 11 21C11.552 21 12 20.553 12 20V17.899C14.279 17.434 16 15.415 16 13C16 10.243 13.757 8 11 8ZM11 16C9.346 16 8 14.654 8 13C8 11.346 9.346 10 11 10C12.654 10 14 11.346 14 13C14 14.654 12.654 16 11 16Z" fill="#ECB016"/>
<path d="M45.0701 26.673C45.1901 26.72 45.3131 26.741 45.4341 26.741C45.8341 26.741 46.2111 26.5 46.3661 26.105C46.8361 24.906 47.2131 23.552 47.4891 22.081C47.5911 21.539 47.2331 21.017 46.6901 20.914C46.1441 20.824 45.6251 21.171 45.5231 21.714C45.2711 23.062 44.9281 24.294 44.5041 25.377C44.3031 25.89 44.5561 26.471 45.0701 26.673Z" fill="#ECB016"/>
<path d="M12.8049 31.342C11.5979 32.099 10.5099 33.047 9.56986 34.162C9.21386 34.584 9.26786 35.215 9.68986 35.571C9.87786 35.729 10.1069 35.806 10.3339 35.806C10.6189 35.806 10.9009 35.685 11.0989 35.451C11.9049 34.495 12.8359 33.682 13.8669 33.037C14.3349 32.743 14.4759 32.126 14.1829 31.658C13.8899 31.19 13.2719 31.048 12.8049 31.342Z" fill="#ECB016"/>
<path d="M8.62691 37.276C8.12491 37.046 7.53091 37.263 7.29991 37.765C6.27391 39.991 6.01991 41.788 6.00891 41.864C5.93391 42.411 6.31591 42.914 6.86291 42.989C6.90891 42.996 6.95591 42.999 7.00091 42.999C7.49191 42.999 7.91991 42.637 7.99091 42.138C7.99291 42.122 8.22191 40.541 9.11591 38.604C9.34691 38.101 9.12791 37.508 8.62691 37.276Z" fill="#ECB016"/>
<path d="M40.4231 32.729C40.5761 32.729 40.7321 32.694 40.8771 32.62C42.1691 31.959 43.3081 31.021 44.2611 29.834C44.6071 29.403 44.5381 28.773 44.1071 28.428C43.6771 28.085 43.0471 28.152 42.7011 28.582C41.9251 29.549 41.0051 30.308 39.9661 30.839C39.4741 31.091 39.2791 31.693 39.5311 32.185C39.7091 32.53 40.0601 32.729 40.4231 32.729Z" fill="#ECB016"/>
<path d="M29.1698 30.432C28.7288 30.247 28.4708 30.119 28.4538 30.11C28.3888 30.077 28.3198 30.05 28.2488 30.032C27.1658 29.754 26.0988 29.534 25.0758 29.378C24.5308 29.292 24.0198 29.669 23.9358 30.215C23.8528 30.761 24.2278 31.272 24.7738 31.355C25.6998 31.497 26.6668 31.695 27.6508 31.945C27.7848 32.009 28.0408 32.13 28.3988 32.279C28.5248 32.332 28.6558 32.356 28.7838 32.356C29.1748 32.356 29.5468 32.126 29.7068 31.742C29.9198 31.23 29.6798 30.644 29.1698 30.432Z" fill="#ECB016"/>
<path d="M46.9229 18.931C46.9449 18.932 46.9659 18.933 46.9879 18.933C47.5109 18.933 47.9509 18.527 47.9849 17.996C48.0469 17.035 48.0779 16.018 48.0779 14.976C48.0779 14.629 48.0749 14.277 48.0679 13.918C48.0579 13.365 47.5779 12.945 47.0499 12.936C46.4979 12.946 46.0579 13.402 46.0679 13.954C46.0739 14.301 46.0779 14.642 46.0779 14.976C46.0779 15.976 46.0479 16.949 45.9889 17.869C45.9539 18.42 46.3719 18.895 46.9229 18.931Z" fill="#ECB016"/>
<path d="M8.29276 27.707C8.48776 27.902 8.74376 28 8.99976 28C9.25576 28 9.51176 27.902 9.70676 27.707L10.9998 26.414L12.2928 27.707C12.4878 27.902 12.7438 28 12.9998 28C13.2558 28 13.5118 27.902 13.7068 27.707C14.0978 27.316 14.0978 26.684 13.7068 26.293L12.4138 25L13.7068 23.707C14.0978 23.316 14.0978 22.684 13.7068 22.293C13.3158 21.902 12.6838 21.902 12.2928 22.293L10.9998 23.586L9.70676 22.293C9.31576 21.902 8.68376 21.902 8.29276 22.293C7.90176 22.684 7.90176 23.316 8.29276 23.707L9.58576 25L8.29276 26.293C7.90176 26.683 7.90176 27.316 8.29276 27.707Z" fill="#ECB016"/>
</svg>
