<svg width="51" height="48" viewBox="0 0 51 48" fill="none" xmlns="http://www.w3.org/2000/svg">
<path d="M48.2962 0.251587H13.371C12.1977 0.252954 11.2469 1.20377 11.2455 2.37711V12.0103L9.64845 9.61473C8.91741 8.51202 7.44723 8.18118 6.31433 8.86455L3.02856 10.84C1.95251 11.4714 1.16316 12.4953 0.826358 13.6966C-0.372276 18.061 0.517103 25.5804 11.554 36.6189C20.3311 45.3869 26.8752 47.7483 31.3854 47.7483C32.4296 47.7531 33.4698 47.6174 34.4779 47.3449C35.6787 47.0081 36.7026 46.2198 37.3352 45.1453L39.3082 41.8561C39.9888 40.7241 39.6583 39.2569 38.558 38.526L30.6903 33.2814C29.611 32.5676 28.1643 32.8023 27.3661 33.8207L25.0755 36.7656C24.8361 37.0807 24.4018 37.1725 24.0552 36.9814L23.6193 36.7413C22.1847 35.9595 20.3993 34.9859 16.7935 31.3801C16.4033 30.9899 16.0499 30.6249 15.7182 30.2756H48.2962C49.4667 30.2765 50.4172 29.3304 50.4218 28.16V2.37711C50.4204 1.20377 49.4696 0.252954 48.2962 0.251587ZM22.8216 38.2052L23.2451 38.4377C24.3095 39.0329 25.6494 38.7568 26.3916 37.7892L28.6822 34.8444C28.9427 34.5127 29.4139 34.4362 29.7658 34.6685L37.6336 39.9131C37.991 40.1513 38.0984 40.6282 37.8778 40.9967L35.9048 44.2859C35.4928 44.9924 34.8234 45.512 34.0369 45.7362C30.0967 46.8198 23.2009 45.903 12.735 35.4362C2.269 24.9695 1.35559 18.0743 2.43662 14.1375C2.6606 13.3511 3.17997 12.6818 3.8861 12.2696L7.17528 10.2958C7.54383 10.0756 8.02041 10.1829 8.25885 10.54L13.5059 18.4077C13.7386 18.7596 13.6621 19.2312 13.33 19.4913L10.3843 21.7827C9.41695 22.5247 9.14071 23.8643 9.73578 24.9285L9.96914 25.3519C10.8026 26.8806 11.8387 28.7827 15.6155 32.5587C19.3925 36.3347 21.2938 37.3716 22.8216 38.2052ZM48.7548 28.1601C48.752 28.4109 48.547 28.6121 48.2963 28.6102H14.2145C13.1319 27.3722 12.1984 26.0115 11.433 24.5559L11.1929 24.1183C11.0014 23.7725 11.093 23.3386 11.408 23.0997L14.3537 20.8083C15.3725 20.0103 15.6072 18.5634 14.893 17.4841L12.9125 14.5117V2.37711C12.9112 2.25511 12.959 2.1377 13.0453 2.05144C13.1315 1.96519 13.2489 1.91733 13.3709 1.9187H48.2962C48.4183 1.91733 48.5357 1.96519 48.6219 2.05144C48.7082 2.1377 48.756 2.25511 48.7547 2.37711V28.1601H48.7548Z" fill="#ECB016"/>
<path d="M45.4256 4.11091L31.4946 14.676C31.1005 14.9624 30.5668 14.9624 30.1726 14.676L16.2468 4.11091C15.88 3.83262 15.3569 3.90451 15.0787 4.2714C14.8004 4.63829 14.8723 5.16136 15.2392 5.43956L29.1667 16.0038C30.1576 16.7358 31.51 16.7358 32.5008 16.0038L46.4326 5.43956C46.6089 5.30593 46.7249 5.10764 46.7548 4.88845C46.7848 4.66925 46.7265 4.44713 46.5926 4.27101C46.3144 3.90481 45.7922 3.83321 45.4256 4.11091Z" fill="#ECB016"/>
<path d="M23.7201 16.0738L15.1814 25.2178C14.8675 25.5545 14.8859 26.0821 15.2226 26.396C15.5593 26.71 16.0869 26.6915 16.4009 26.3548L24.9397 17.2067C25.2218 16.8664 25.189 16.365 24.8652 16.0641C24.5413 15.7631 24.0389 15.7674 23.7201 16.0738Z" fill="#ECB016"/>
<path d="M38.0025 16.0738C37.6885 15.7371 37.161 15.7186 36.8242 16.0326C36.4875 16.3466 36.469 16.874 36.783 17.2108L45.3193 26.3548C45.6333 26.6915 46.1607 26.7101 46.4975 26.396C46.8342 26.0821 46.8528 25.5546 46.5388 25.2178L38.0025 16.0738Z" fill="#ECB016"/>
</svg>
